<svg xmlns="http://www.w3.org/2000/svg" xmlns:xlink="http://www.w3.org/1999/xlink" viewBox="0 0 649.92 454.82"><defs><style>.cls-1{fill:none;stroke:#ff8019;}.cls-1,.cls-34{stroke-miterlimit:10;}.cls-2{isolation:isolate;}.cls-3{clip-path:url(#clip-path);}.cls-4{fill:url(#linear-gradient);}.cls-5{fill:url(#Degradado_sin_nombre_789);}.cls-14,.cls-6{fill:#f39200;}.cls-7{opacity:0.1;}.cls-12,.cls-7{mix-blend-mode:multiply;}.cls-8{fill:url(#Degradado_sin_nombre_789-2);}.cls-9{fill:url(#Degradado_sin_nombre_789-3);}.cls-10,.cls-34{fill:#fff;}.cls-11{mask:url(#mask);}.cls-12{opacity:0.4;}.cls-13{fill:#969696;}.cls-14{font-size:24.57px;font-family:Roboto-LightItalic, Roboto;font-weight:300;font-style:italic;}.cls-15{font-size:69.63px;}.cls-15,.cls-16{fill:#111343;font-family:Roboto-Black, Roboto;font-weight:800;}.cls-16{font-size:23.18px;}.cls-17{clip-path:url(#clip-path-2);}.cls-18{fill:url(#linear-gradient-2);}.cls-19{fill:url(#Degradado_sin_nombre_789-4);}.cls-20{fill:url(#Degradado_sin_nombre_789-5);}.cls-21{fill:url(#Degradado_sin_nombre_789-6);}.cls-22{mask:url(#mask-2);}.cls-23{letter-spacing:-0.06em;}.cls-24{letter-spacing:-0.02em;}.cls-25{clip-path:url(#clip-path-3);}.cls-26{fill:url(#linear-gradient-3);}.cls-27{fill:url(#Degradado_sin_nombre_789-7);}.cls-28{fill:url(#Degradado_sin_nombre_789-8);}.cls-29{fill:url(#Degradado_sin_nombre_789-9);}.cls-30{mask:url(#mask-3);}.cls-31{letter-spacing:-0.04em;}.cls-32{letter-spacing:0em;}.cls-33{letter-spacing:-0.01em;}.cls-34{stroke:#fff;stroke-width:2px;}.cls-35{filter:url(#luminosity-invert);}</style><clipPath id="clip-path" transform="translate(-127.64 -30.81)"><rect class="cls-1" x="129.46" y="72.57" width="202.86" height="412.39" rx="3.03"/></clipPath><linearGradient id="linear-gradient" x1="103.25" y1="454.15" x2="103.25" y2="41.76" gradientUnits="userSpaceOnUse"><stop offset="0" stop-color="#ff4d19"/><stop offset="1" stop-color="#ff8019"/></linearGradient><linearGradient id="Degradado_sin_nombre_789" y1="375.63" x2="348.15" y2="375.63" gradientUnits="userSpaceOnUse"><stop offset="0.58" stop-color="#ededed"/><stop offset="0.84" stop-color="#ebebeb"/><stop offset="0.93" stop-color="#e4e4e4"/><stop offset="1" stop-color="#dadada"/></linearGradient><linearGradient id="Degradado_sin_nombre_789-2" x1="25.56" y1="82.46" x2="177.67" y2="82.46" xlink:href="#Degradado_sin_nombre_789"/><linearGradient id="Degradado_sin_nombre_789-3" x1="104.89" y1="162.01" x2="104.89" y2="9.4" xlink:href="#Degradado_sin_nombre_789"/><filter id="luminosity-invert" filterUnits="userSpaceOnUse" color-interpolation-filters="sRGB"><feColorMatrix values="-1 0 0 0 1 0 -1 0 0 1 0 0 -1 0 1 0 0 0 1 0"/></filter><mask id="mask" x="39.23" y="19.99" width="127.92" height="128.16" maskUnits="userSpaceOnUse"><g class="cls-35"><g transform="translate(-127.64 -30.81)"><image width="533" height="534" transform="translate(166.86 50.8) scale(0.24)" xlink:href="rfq23.png"/></g></g></mask><clipPath id="clip-path-2" transform="translate(-127.64 -30.81)"><rect class="cls-1" x="350.59" y="72.57" width="202.86" height="412.39" rx="3.03"/></clipPath><linearGradient id="linear-gradient-2" x1="324.39" y1="454.15" x2="324.39" y2="41.76" xlink:href="#linear-gradient"/><linearGradient id="Degradado_sin_nombre_789-4" x1="168.13" y1="375.63" x2="516.28" y2="375.63" xlink:href="#Degradado_sin_nombre_789"/><linearGradient id="Degradado_sin_nombre_789-5" x1="246.69" y1="82.46" x2="398.81" y2="82.46" xlink:href="#Degradado_sin_nombre_789"/><linearGradient id="Degradado_sin_nombre_789-6" x1="326.02" y1="162.01" x2="326.02" y2="9.4" xlink:href="#Degradado_sin_nombre_789"/><mask id="mask-2" x="260.51" y="19.99" width="127.92" height="128.16" maskUnits="userSpaceOnUse"><g class="cls-35"><g transform="translate(-127.64 -30.81)"><image width="533" height="534" transform="translate(388.14 50.8) scale(0.24)" xlink:href="rfq26.png"/></g></g></mask><clipPath id="clip-path-3" transform="translate(-127.64 -30.81)"><rect class="cls-1" x="571.73" y="72.57" width="202.86" height="412.39" rx="3.03"/></clipPath><linearGradient id="linear-gradient-3" x1="545.52" y1="454.15" x2="545.52" y2="41.76" xlink:href="#linear-gradient"/><linearGradient id="Degradado_sin_nombre_789-7" x1="299.26" y1="375.63" x2="647.41" y2="375.63" xlink:href="#Degradado_sin_nombre_789"/><linearGradient id="Degradado_sin_nombre_789-8" x1="467.83" y1="82.46" x2="619.94" y2="82.46" xlink:href="#Degradado_sin_nombre_789"/><linearGradient id="Degradado_sin_nombre_789-9" x1="547.15" y1="162.01" x2="547.15" y2="9.4" xlink:href="#Degradado_sin_nombre_789"/><mask id="mask-3" x="481.55" y="19.99" width="127.92" height="128.16" maskUnits="userSpaceOnUse"><g class="cls-35"><g transform="translate(-127.64 -30.81)"><image width="533" height="534" transform="translate(609.18 50.8) scale(0.24)" xlink:href="rfq29.png"/></g></g></mask></defs><title>rfq2</title><g class="cls-2"><g id="OBJECTS"><g class="cls-3"><rect class="cls-4" x="1.83" y="41.76" width="202.86" height="412.39" rx="3.03"/><rect class="cls-5" y="296.44" width="348.15" height="158.38"/><rect class="cls-6" x="1.03" y="434.03" width="206.63" height="5.14"/></g><rect class="cls-1" x="1.83" y="41.76" width="202.86" height="412.39" rx="3.03"/><image class="cls-7" width="755" height="758" transform="translate(11.07) scale(0.24)" xlink:href="rfq21.png"/><ellipse class="cls-8" cx="101.62" cy="82.46" rx="76.06" ry="76.3"/><image class="cls-7" width="756" height="757" transform="translate(14.19 3.36) scale(0.24)" xlink:href="rfq22.png"/><ellipse class="cls-9" cx="104.89" cy="85.71" rx="76.06" ry="76.3"/><ellipse class="cls-10" cx="103.25" cy="84.08" rx="61.85" ry="62.06"/><g class="cls-11"><g class="cls-12"><ellipse class="cls-13" cx="103.25" cy="84.08" rx="61.85" ry="62.06"/></g></g><text class="cls-14" transform="translate(77.82 67.02) scale(0.94 1)">STEP</text><text class="cls-15" transform="translate(65.65 120.65) scale(0.94 1)">01</text><text class="cls-16" transform="translate(65.04 358.72) scale(0.94 1)">FILL UP <tspan x="-16.31" y="27.81">RFQ FORM</tspan></text><g class="cls-17"><rect class="cls-18" x="222.96" y="41.76" width="202.86" height="412.39" rx="3.03"/><rect class="cls-19" x="168.13" y="296.44" width="348.15" height="158.38"/><rect class="cls-6" x="222.16" y="434.03" width="206.63" height="5.14"/></g><rect class="cls-1" x="222.96" y="41.76" width="202.86" height="412.39" rx="3.03"/><image class="cls-7" width="756" height="758" transform="translate(232.11) scale(0.24)" xlink:href="rfq24.png"/><ellipse class="cls-20" cx="322.75" cy="82.46" rx="76.06" ry="76.3"/><image class="cls-7" width="755" height="757" transform="translate(235.47 3.36) scale(0.24)" xlink:href="rfq25.png"/><ellipse class="cls-21" cx="326.02" cy="85.71" rx="76.06" ry="76.3"/><ellipse class="cls-10" cx="324.39" cy="84.08" rx="61.86" ry="62.06"/><g class="cls-22"><g class="cls-12"><ellipse class="cls-13" cx="324.39" cy="84.08" rx="61.86" ry="62.06"/></g></g><text class="cls-14" transform="translate(298.95 67.02) scale(0.94 1)">STEP</text><text class="cls-15" transform="translate(286.78 120.65) scale(0.94 1)">02</text><text class="cls-16" transform="translate(285.62 358.72) scale(0.94 1)">CHOOSE <tspan x="-13.59" y="27.81">C</tspan><tspan class="cls-23" x="1.62" y="27.81">A</tspan><tspan x="16.05" y="27.81">TEGO</tspan><tspan class="cls-24" x="75.43" y="27.81">R</tspan><tspan x="90" y="27.81">Y</tspan></text><g class="cls-25"><rect class="cls-26" x="444.09" y="41.76" width="202.86" height="412.39" rx="3.03"/><rect class="cls-27" x="299.26" y="296.44" width="348.15" height="158.38"/><rect class="cls-6" x="443.29" y="434.03" width="206.63" height="5.14"/></g><rect class="cls-1" x="444.09" y="41.76" width="202.86" height="412.39" rx="3.03"/><image class="cls-7" width="756" height="758" transform="translate(453.15) scale(0.24)" xlink:href="rfq27.png"/><ellipse class="cls-28" cx="543.88" cy="82.46" rx="76.06" ry="76.3"/><image class="cls-7" width="756" height="757" transform="translate(456.51 3.36) scale(0.24)" xlink:href="rfq28.png"/><ellipse class="cls-29" cx="547.15" cy="85.71" rx="76.06" ry="76.3"/><ellipse class="cls-10" cx="545.52" cy="84.08" rx="61.86" ry="62.06"/><g class="cls-30"><g class="cls-12"><ellipse class="cls-13" cx="545.52" cy="84.08" rx="61.86" ry="62.06"/></g></g><text class="cls-14" transform="translate(520.08 67.02) scale(0.94 1)">STEP</text><text class="cls-15" transform="translate(507.91 120.65) scale(0.94 1)">03</text><text class="cls-16" transform="translate(484.53 348.72) scale(0.94 1)">MINIMUM 5 <tspan x="-24.74" y="27.81">QU</tspan><tspan class="cls-31" x="6.66" y="27.81">O</tspan><tspan class="cls-32" x="21.7" y="27.81">TES W</tspan><tspan class="cls-33" x="89.7" y="27.81">I</tspan><tspan x="96.37" y="27.81">THIN</tspan><tspan x="7.93" y="55.62">24 HOURS</tspan></text><path class="cls-34" d="M437.7,275.06a28.58,28.58,0,1,1,20.21-8.37A28.44,28.44,0,0,1,437.7,275.06Zm0-55.68a27.1,27.1,0,1,0,19.16,7.94A26.91,26.91,0,0,0,437.7,219.38Z" transform="translate(-127.64 -30.81)"/><path class="cls-34" d="M437.69,270.69a24.22,24.22,0,1,1,17.12-7.1A24,24,0,0,1,437.69,270.69Zm0-46.94a22.76,22.76,0,1,0,16.08,6.67A22.58,22.58,0,0,0,437.69,223.75Z" transform="translate(-127.64 -30.81)"/><path class="cls-34" d="M465.82,275.34a.79.79,0,0,1-.53-.22l-8.43-8.43a.74.74,0,1,1,1.05-1.05l8.43,8.43a.74.74,0,0,1,0,1.05A.76.76,0,0,1,465.82,275.34Z" transform="translate(-127.64 -30.81)"/><path class="cls-34" d="M493.94,307.84a5,5,0,0,1-3.61-1.5L462.2,278.21a.7.7,0,0,1-.21-.52.78.78,0,0,1,.21-.52l6.19-6.18a.73.73,0,0,1,1,0l28.13,28.12a5.12,5.12,0,0,1,0,7.23A5.06,5.06,0,0,1,493.94,307.84Zm-30.17-30.15,27.6,27.61a3.73,3.73,0,0,0,5.14,0,3.65,3.65,0,0,0,0-5.15l-27.6-27.59Z" transform="translate(-127.64 -30.81)"/><path class="cls-34" d="M423.19,255a.74.74,0,0,1-.74-.74V248a.74.74,0,1,1,1.47,0v6.31A.74.74,0,0,1,423.19,255Z" transform="translate(-127.64 -30.81)"/><path class="cls-34" d="M430.44,255a.74.74,0,0,1-.74-.74V240.52a.74.74,0,0,1,1.48,0v13.74A.74.74,0,0,1,430.44,255Z" transform="translate(-127.64 -30.81)"/><path class="cls-34" d="M437.7,255a.74.74,0,0,1-.74-.74v-9.42a.74.74,0,1,1,1.48,0v9.42A.74.74,0,0,1,437.7,255Z" transform="translate(-127.64 -30.81)"/><path class="cls-34" d="M445,255a.74.74,0,0,1-.74-.74v-6.48a.74.74,0,0,1,1.48,0v6.48A.74.74,0,0,1,445,255Z" transform="translate(-127.64 -30.81)"/><path class="cls-34" d="M452.21,255a.74.74,0,0,1-.74-.74V238.7a.74.74,0,0,1,1.48,0v15.56A.74.74,0,0,1,452.21,255Z" transform="translate(-127.64 -30.81)"/><path class="cls-34" d="M671.52,303.76a37.08,37.08,0,1,1,37.08-37.08A37.12,37.12,0,0,1,671.52,303.76Zm0-72.77a35.69,35.69,0,1,0,35.69,35.69A35.74,35.74,0,0,0,671.52,231Z" transform="translate(-127.64 -30.81)"/><path class="cls-34" d="M671.52,300.49a33.82,33.82,0,1,1,33.82-33.81A33.85,33.85,0,0,1,671.52,300.49Zm0-66.25A32.44,32.44,0,1,0,704,266.68,32.47,32.47,0,0,0,671.52,234.24Z" transform="translate(-127.64 -30.81)"/><path class="cls-34" d="M671.26,242.28a.69.69,0,0,1-.69-.7v-6.53a.7.7,0,0,1,1.39,0v6.53A.7.7,0,0,1,671.26,242.28Z" transform="translate(-127.64 -30.81)"/><path class="cls-34" d="M683.84,245.5a.72.72,0,0,1-.34-.09.7.7,0,0,1-.26-.95l3.27-5.64a.69.69,0,0,1,1.2.69l-3.27,5.65A.68.68,0,0,1,683.84,245.5Z" transform="translate(-127.64 -30.81)"/><path class="cls-34" d="M693.13,254.61a.7.7,0,0,1-.35-1.3l5.65-3.26a.69.69,0,0,1,.7,1.2l-5.66,3.26A.74.74,0,0,1,693.13,254.61Z" transform="translate(-127.64 -30.81)"/><path class="cls-34" d="M703.14,267.12h-6.52a.7.7,0,1,1,0-1.39h6.52a.7.7,0,1,1,0,1.39Z" transform="translate(-127.64 -30.81)"/><path class="cls-34" d="M699,283a.73.73,0,0,1-.35-.09L693,279.61a.69.69,0,0,1-.25-.95.68.68,0,0,1,.94-.25l5.64,3.26A.69.69,0,0,1,699,283Z" transform="translate(-127.64 -30.81)"/><path class="cls-34" d="M687.55,294.63a.7.7,0,0,1-.6-.35l-3.26-5.64a.69.69,0,0,1,.25-.95.7.7,0,0,1,.95.26l3.26,5.64a.7.7,0,0,1-.26,1A.69.69,0,0,1,687.55,294.63Z" transform="translate(-127.64 -30.81)"/><path class="cls-34" d="M671.77,299a.69.69,0,0,1-.7-.69v-6.53a.7.7,0,0,1,1.39,0v6.53A.69.69,0,0,1,671.77,299Z" transform="translate(-127.64 -30.81)"/><path class="cls-34" d="M655.92,294.89a.72.72,0,0,1-.34-.09.7.7,0,0,1-.26-.95l3.27-5.65a.69.69,0,0,1,1.2.7l-3.27,5.64A.67.67,0,0,1,655.92,294.89Z" transform="translate(-127.64 -30.81)"/><path class="cls-34" d="M644.26,283.41a.7.7,0,0,1-.35-1.3l5.65-3.26a.69.69,0,0,1,.94.25.7.7,0,0,1-.25.95l-5.64,3.26A.64.64,0,0,1,644.26,283.41Z" transform="translate(-127.64 -30.81)"/><path class="cls-34" d="M646.42,267.63h-6.53a.7.7,0,0,1,0-1.39h6.53a.7.7,0,0,1,0,1.39Z" transform="translate(-127.64 -30.81)"/><path class="cls-34" d="M649.65,255a.69.69,0,0,1-.34-.09l-5.65-3.26a.68.68,0,0,1-.26-.94.7.7,0,0,1,1-.26l5.65,3.26a.69.69,0,0,1,.25.94A.67.67,0,0,1,649.65,255Z" transform="translate(-127.64 -30.81)"/><path class="cls-34" d="M658.75,245.76a.68.68,0,0,1-.6-.34l-3.27-5.66a.69.69,0,0,1,.26-.94.68.68,0,0,1,.94.25l3.27,5.65a.7.7,0,0,1-.26.95A.69.69,0,0,1,658.75,245.76Z" transform="translate(-127.64 -30.81)"/><path class="cls-34" d="M673.58,231h-4.13a.69.69,0,0,1-.69-.69v-7.79a.69.69,0,0,1,.69-.69h4.13a.69.69,0,0,1,.7.69v7.79A.69.69,0,0,1,673.58,231Zm-3.44-1.39h2.75v-6.39h-2.75Z" transform="translate(-127.64 -30.81)"/><path class="cls-34" d="M677.16,223.21H665.87a.69.69,0,0,1-.69-.7v-2.39a.69.69,0,0,1,.69-.69h11.29a.69.69,0,0,1,.7.69v2.39A.7.7,0,0,1,677.16,223.21Zm-10.6-1.39h9.91v-1h-9.91Z" transform="translate(-127.64 -30.81)"/><path class="cls-34" d="M685.41,267.37H671.52a.73.73,0,0,1-.57-.29l-11-15.35a.69.69,0,0,1,1.13-.8L671.88,266h13.53a.7.7,0,1,1,0,1.39Z" transform="translate(-127.64 -30.81)"/><path class="cls-34" d="M692.73,237.76h-.07a.73.73,0,0,1-.4-.13,35.12,35.12,0,0,0-4.42-2.71.69.69,0,0,1-.38-.61v-3.78a.7.7,0,0,1,.7-.7h4.57a.69.69,0,0,1,.69.7v6.53A.69.69,0,0,1,692.73,237.76Zm-3.88-3.87c1.09.58,2.16,1.22,3.19,1.9v-4.57h-3.19Z" transform="translate(-127.64 -30.81)"/><path class="cls-34" d="M247.45,298H200.08a4.43,4.43,0,0,1-4.42-4.42V238a5.15,5.15,0,0,1,5.15-5.14h46.64a.6.6,0,0,1,.6.61v13.95a.63.63,0,0,1-.17.42l-14.25,14.85-.52,8.6,8.12-1.28,5.78-6a.6.6,0,0,1,.66-.14.6.6,0,0,1,.38.56v32.93A.6.6,0,0,1,247.45,298ZM200.81,234.1a3.93,3.93,0,0,0-3.93,3.92v55.53a3.2,3.2,0,0,0,3.2,3.2h46.76V265.94L242,271a.57.57,0,0,1-.34.18l-9.06,1.42a.6.6,0,0,1-.51-.15.61.61,0,0,1-.19-.48l.57-9.57a.63.63,0,0,1,.17-.39l14.24-14.84V234.1Z" transform="translate(-127.64 -30.81)"/><path class="cls-34" d="M206.07,297.77a.6.6,0,0,1-.6-.61V233.63a.61.61,0,1,1,1.21,0v63.53A.61.61,0,0,1,206.07,297.77Z" transform="translate(-127.64 -30.81)"/><path class="cls-34" d="M201.17,246.7a2.7,2.7,0,1,1,2.69-2.7A2.69,2.69,0,0,1,201.17,246.7Zm0-4.18a1.49,1.49,0,1,0,1.48,1.48A1.48,1.48,0,0,0,201.17,242.52Z" transform="translate(-127.64 -30.81)"/><path class="cls-34" d="M201.17,257.41a2.7,2.7,0,1,1,2.69-2.7A2.69,2.69,0,0,1,201.17,257.41Zm0-4.17a1.48,1.48,0,1,0,1.48,1.47A1.47,1.47,0,0,0,201.17,253.24Z" transform="translate(-127.64 -30.81)"/><path class="cls-34" d="M201.17,268.12a2.7,2.7,0,1,1,2.69-2.69A2.69,2.69,0,0,1,201.17,268.12Zm0-4.17a1.48,1.48,0,1,0,1.48,1.48A1.48,1.48,0,0,0,201.17,264Z" transform="translate(-127.64 -30.81)"/><path class="cls-34" d="M201.17,278.82a2.69,2.69,0,1,1,2.69-2.69A2.69,2.69,0,0,1,201.17,278.82Zm0-4.17a1.48,1.48,0,1,0,0,3,1.46,1.46,0,0,0,1.48-1.47A1.48,1.48,0,0,0,201.17,274.65Z" transform="translate(-127.64 -30.81)"/><path class="cls-34" d="M201.17,289.53a2.69,2.69,0,1,1,2.69-2.69A2.69,2.69,0,0,1,201.17,289.53Zm0-4.17a1.48,1.48,0,1,0,1.48,1.48A1.48,1.48,0,0,0,201.17,285.36Z" transform="translate(-127.64 -30.81)"/><path class="cls-34" d="M229.12,246.23H214.6a.61.61,0,1,1,0-1.21h14.52a.61.61,0,1,1,0,1.21Z" transform="translate(-127.64 -30.81)"/><path class="cls-34" d="M229.12,259.43H214.6a.61.61,0,0,1-.61-.61.61.61,0,0,1,.61-.61h14.52a.61.61,0,0,1,.61.61A.62.62,0,0,1,229.12,259.43Z" transform="translate(-127.64 -30.81)"/><path class="cls-34" d="M232.43,272.63H214.6a.61.61,0,1,1,0-1.21h17.83a.61.61,0,1,1,0,1.21Z" transform="translate(-127.64 -30.81)"/><path class="cls-34" d="M240.69,285.82H214.6a.61.61,0,1,1,0-1.21h26.09a.61.61,0,0,1,0,1.21Z" transform="translate(-127.64 -30.81)"/><path class="cls-34" d="M232.46,272.63a.59.59,0,0,1-.41-.16.61.61,0,0,1-.19-.48l.57-9.57a.63.63,0,0,1,.17-.39l26.48-27.59a3.76,3.76,0,0,1,5.32-.11l3.93,3.77a3.76,3.76,0,0,1,.11,5.32L242,271a.57.57,0,0,1-.34.18l-9.06,1.42Zm1.17-9.92-.52,8.6,8.12-1.28,26.34-27.44a2.57,2.57,0,0,0-.08-3.62l-3.93-3.77a2.62,2.62,0,0,0-3.61.08Z" transform="translate(-127.64 -30.81)"/><path class="cls-34" d="M265.75,246a.59.59,0,0,1-.42-.17l-8.5-8.15a.6.6,0,1,1,.84-.87l8.5,8.14a.6.6,0,0,1,0,.86A.63.63,0,0,1,265.75,246Z" transform="translate(-127.64 -30.81)"/><path class="cls-34" d="M241.53,271.21a.63.63,0,0,1-.43-.17l-8.48-8.15a.61.61,0,0,1,0-.86.6.6,0,0,1,.86,0l8.49,8.14a.61.61,0,0,1,0,.86A.59.59,0,0,1,241.53,271.21Z" transform="translate(-127.64 -30.81)"/><path class="cls-34" d="M237.28,267.13a.63.63,0,0,1-.42-.17.6.6,0,0,1,0-.86l24.21-25.23a.61.61,0,0,1,.88.84l-24.22,25.23A.59.59,0,0,1,237.28,267.13Z" transform="translate(-127.64 -30.81)"/></g></g></svg>